<mxfile host="Electron" agent="Mozilla/5.0 (Windows NT 10.0; Win64; x64) AppleWebKit/537.36 (KHTML, like Gecko) draw.io/26.0.9 Chrome/128.0.6613.186 Electron/32.2.5 Safari/537.36" version="26.0.9">
  <diagram name="Page-1" id="TnEciFf0lUUz7qHPB_6e">
    <mxGraphModel dx="503" dy="304" grid="1" gridSize="10" guides="1" tooltips="1" connect="1" arrows="1" fold="1" page="1" pageScale="1" pageWidth="850" pageHeight="1100" math="0" shadow="0">
      <root>
        <mxCell id="0" />
        <mxCell id="1" parent="0" />
        <mxCell id="SuYyy2BMjK82ZU2Ccuik-1" value="&lt;font&gt;&lt;span&gt;m&lt;sub&gt;11&lt;/sub&gt;&lt;/span&gt;&lt;/font&gt;" style="ellipse;whiteSpace=wrap;html=1;aspect=fixed;fontSize=16;fontStyle=0" parent="1" vertex="1">
          <mxGeometry x="80" y="120" width="40" height="40" as="geometry" />
        </mxCell>
        <mxCell id="SuYyy2BMjK82ZU2Ccuik-2" value="m&lt;sub&gt;21&lt;/sub&gt;" style="ellipse;whiteSpace=wrap;html=1;aspect=fixed;fontSize=16;fontStyle=0" parent="1" vertex="1">
          <mxGeometry x="180" y="40" width="40" height="40" as="geometry" />
        </mxCell>
        <mxCell id="SuYyy2BMjK82ZU2Ccuik-3" value="m&lt;sub&gt;22&lt;/sub&gt;" style="ellipse;whiteSpace=wrap;html=1;aspect=fixed;fontSize=16;fontStyle=0" parent="1" vertex="1">
          <mxGeometry x="180" y="200" width="40" height="40" as="geometry" />
        </mxCell>
        <mxCell id="SuYyy2BMjK82ZU2Ccuik-4" value="m&lt;sub&gt;31&lt;/sub&gt;" style="ellipse;whiteSpace=wrap;html=1;aspect=fixed;fontSize=16;fontStyle=0" parent="1" vertex="1">
          <mxGeometry x="340" y="40" width="40" height="40" as="geometry" />
        </mxCell>
        <mxCell id="SuYyy2BMjK82ZU2Ccuik-5" value="m&lt;sub&gt;32&lt;/sub&gt;" style="ellipse;whiteSpace=wrap;html=1;aspect=fixed;fontSize=16;fontStyle=0" parent="1" vertex="1">
          <mxGeometry x="340" y="200" width="40" height="40" as="geometry" />
        </mxCell>
        <mxCell id="SuYyy2BMjK82ZU2Ccuik-6" value="" style="endArrow=none;html=1;rounded=0;" parent="1" source="SuYyy2BMjK82ZU2Ccuik-1" target="SuYyy2BMjK82ZU2Ccuik-2" edge="1">
          <mxGeometry width="50" height="50" relative="1" as="geometry">
            <mxPoint x="200" y="180" as="sourcePoint" />
            <mxPoint x="250" y="130" as="targetPoint" />
          </mxGeometry>
        </mxCell>
        <mxCell id="SuYyy2BMjK82ZU2Ccuik-7" value="" style="endArrow=none;html=1;rounded=0;" parent="1" source="SuYyy2BMjK82ZU2Ccuik-1" target="SuYyy2BMjK82ZU2Ccuik-3" edge="1">
          <mxGeometry width="50" height="50" relative="1" as="geometry">
            <mxPoint x="210" y="190" as="sourcePoint" />
            <mxPoint x="260" y="140" as="targetPoint" />
          </mxGeometry>
        </mxCell>
        <mxCell id="SuYyy2BMjK82ZU2Ccuik-8" value="" style="endArrow=none;html=1;rounded=0;" parent="1" source="SuYyy2BMjK82ZU2Ccuik-3" target="SuYyy2BMjK82ZU2Ccuik-2" edge="1">
          <mxGeometry width="50" height="50" relative="1" as="geometry">
            <mxPoint x="220" y="200" as="sourcePoint" />
            <mxPoint x="270" y="150" as="targetPoint" />
          </mxGeometry>
        </mxCell>
        <mxCell id="SuYyy2BMjK82ZU2Ccuik-9" value="" style="endArrow=none;html=1;rounded=0;" parent="1" source="SuYyy2BMjK82ZU2Ccuik-2" target="SuYyy2BMjK82ZU2Ccuik-4" edge="1">
          <mxGeometry width="50" height="50" relative="1" as="geometry">
            <mxPoint x="230" y="210" as="sourcePoint" />
            <mxPoint x="280" y="160" as="targetPoint" />
          </mxGeometry>
        </mxCell>
        <mxCell id="SuYyy2BMjK82ZU2Ccuik-10" value="" style="endArrow=none;html=1;rounded=0;" parent="1" source="SuYyy2BMjK82ZU2Ccuik-2" target="SuYyy2BMjK82ZU2Ccuik-5" edge="1">
          <mxGeometry width="50" height="50" relative="1" as="geometry">
            <mxPoint x="240" y="150" as="sourcePoint" />
            <mxPoint x="290" y="100" as="targetPoint" />
          </mxGeometry>
        </mxCell>
        <mxCell id="SuYyy2BMjK82ZU2Ccuik-11" value="" style="endArrow=none;html=1;rounded=0;" parent="1" source="SuYyy2BMjK82ZU2Ccuik-5" target="SuYyy2BMjK82ZU2Ccuik-4" edge="1">
          <mxGeometry width="50" height="50" relative="1" as="geometry">
            <mxPoint x="270" y="230" as="sourcePoint" />
            <mxPoint x="320" y="180" as="targetPoint" />
          </mxGeometry>
        </mxCell>
        <mxCell id="SuYyy2BMjK82ZU2Ccuik-12" value="" style="endArrow=none;html=1;rounded=0;" parent="1" source="SuYyy2BMjK82ZU2Ccuik-3" target="SuYyy2BMjK82ZU2Ccuik-5" edge="1">
          <mxGeometry width="50" height="50" relative="1" as="geometry">
            <mxPoint x="260" y="240" as="sourcePoint" />
            <mxPoint x="310" y="190" as="targetPoint" />
          </mxGeometry>
        </mxCell>
        <mxCell id="SuYyy2BMjK82ZU2Ccuik-13" value="" style="endArrow=none;html=1;rounded=0;" parent="1" source="SuYyy2BMjK82ZU2Ccuik-3" target="SuYyy2BMjK82ZU2Ccuik-4" edge="1">
          <mxGeometry width="50" height="50" relative="1" as="geometry">
            <mxPoint x="250" y="160" as="sourcePoint" />
            <mxPoint x="300" y="110" as="targetPoint" />
          </mxGeometry>
        </mxCell>
        <mxCell id="SuYyy2BMjK82ZU2Ccuik-14" value="1" style="text;html=1;align=center;verticalAlign=middle;resizable=0;points=[];autosize=1;strokeColor=none;fillColor=none;fontSize=16;fontStyle=0" parent="1" vertex="1">
          <mxGeometry x="84" y="95" width="30" height="30" as="geometry" />
        </mxCell>
        <mxCell id="SuYyy2BMjK82ZU2Ccuik-15" value="2" style="text;html=1;align=center;verticalAlign=middle;resizable=0;points=[];autosize=1;strokeColor=none;fillColor=none;fontSize=16;fontStyle=0;fontColor=default;" parent="1" vertex="1">
          <mxGeometry x="184" y="16" width="30" height="30" as="geometry" />
        </mxCell>
        <mxCell id="SuYyy2BMjK82ZU2Ccuik-16" value="1" style="text;html=1;align=center;verticalAlign=middle;resizable=0;points=[];autosize=1;strokeColor=none;fillColor=none;fontSize=16;fontStyle=0" parent="1" vertex="1">
          <mxGeometry x="345" y="15" width="30" height="30" as="geometry" />
        </mxCell>
        <mxCell id="SuYyy2BMjK82ZU2Ccuik-17" value="3" style="text;html=1;align=center;verticalAlign=middle;resizable=0;points=[];autosize=1;strokeColor=none;fillColor=none;fontSize=16;fontStyle=0" parent="1" vertex="1">
          <mxGeometry x="184" y="237" width="30" height="30" as="geometry" />
        </mxCell>
        <mxCell id="SuYyy2BMjK82ZU2Ccuik-18" value="4" style="text;html=1;align=center;verticalAlign=middle;resizable=0;points=[];autosize=1;strokeColor=none;fillColor=none;fontSize=16;fontStyle=0" parent="1" vertex="1">
          <mxGeometry x="344" y="236" width="30" height="30" as="geometry" />
        </mxCell>
      </root>
    </mxGraphModel>
  </diagram>
</mxfile>
